<svg xmlns="http://www.w3.org/2000/svg" viewBox="0 0 595.28 841.89"><defs><style>.cls-1{fill:#2389ad;}.cls-2{fill:#a5c45b;}</style></defs><g id="圖層_2" data-name="圖層 2"><circle class="cls-1" cx="297.22" cy="436.4" r="127.06"/><path class="cls-2" d="M246,451s2.82,10.17-2.82,18.07S250,497.28,250,497.28l13.56,11.29s5.08,17.51,3.38,32.19,6.78,17.51,10.73,18.63-3.95-14.11,5.09-16.94,13.55-2.82,19.76-10.16,10.17-14.68,16.38-15.25,10.73-10.73,12.42-16.94a30.12,30.12,0,0,1,5.65-10.73s7.9-7.34-11.86-10.16S307,477,305.29,473.56s-5.55-13.55-15.2-14.12-11.34-5.08-14.16-7.34-2.26-2.26-7.34-2.82S255,445.79,255,445.79Z"/><path class="cls-2" d="M231.51,327.87l20.14-10.17s3-1.13,2.07,2.64,1.5,8.09,3,6.58,7.34-1.31,9,0,8.48-1.5,11.86-.37,1.51,2.82,2.64,3.95,3.2.75,4.52,3.2,4.51,6.59,1.5,8.47-11.29-4.89-15.06-5.27-13.55,3.58-15.43,4.33-6.59,6.59,1.13,11.11,10.92,4,11.29,0,.57-7.34,4.71-7.72,3.57,6,5.83,5.27,5.46-2.64,7,.56,1.13,5.46,5.27,6.22,2.45,7-4.52,7.53-13.74-4-11.29,3.76-4.33,8.47-5.09,8.28-10.91,5.46-13.17,12.05-9.41,5.46-11.48,10.16.94,10.92-1.13,12.43-2.64-2.64-3.2-5.08-3.58-6.4-8.1-6-3.39-1.13-8.66-.37-7.15,0-7.9,5.45-8.28,14.31,0,18.26,7.15-2.82,8.09-3.95,7.15-4.89,5.84-.56-5.09,8.28-3.39,10.72,8.09-.56,7.72,3.77-4.14,10.73-.38,12.61,8.47-.94,10.16,2.45-.37,3.39-.37,3.39-1.88-7.34-4.9-2.64-6.58-3.21-7.9-4.8-3-6.87-7.34-6.87-4-7.72-7.53-8.47-15.63-5.65-13.93-17.32-4.33-12.42-1.32-19.39-2.45-17.5-1.88-21.27,12.8-26.16,18.45-31.62A147.4,147.4,0,0,1,231.51,327.87Z"/><path class="cls-2" d="M292.47,324.45s14.14-8.25,21.5.4,12.53,5.63,7.11,11.8-11.15,10.2-12.86,10-3.1,7.36-3.39,8.45-13.68-12.35-9.13-15.24,5.13-7.12,4.31-9.09-9.74-.22-10.19-3S292.47,324.45,292.47,324.45Z"/><path class="cls-2" d="M332.65,326a9.1,9.1,0,0,0,5.22,1.84c3,0,2.26,4.8-1,3.95S331.38,327,332.65,326Z"/><path class="cls-2" d="M336,346.78c1.67-1.22,5-.84,5.38-2.4s4.09,0,3.1,3.11S336,348.9,336,348.9,333.88,348.34,336,346.78Z"/><path class="cls-2" d="M354.33,323.62s21.13,8.3,41.35,32.24c2.27,2.67.85,5.5,3.53,8.89s3.25,9,0,5.22-8.75-9.88-9.6-7.9.48,2.06,2.83,2.54,4.8,3.95,3.67,4.94-2-3-4.24-2.26-3.67-1.55-4.23-1.83-1.7-2.12-3.11,2.4-3.67,3.52-3.67,5.64,4.24,4,2.68,5.93-2-.14-4,4.24-13.27-9-11.58-11,3.36,1.55,6.55-2.69-.05-4-3.16-5.22-7.34-3.25-4.66-4.09,7.06-.29,5.23-2.55-4.52-3.38-5.51-1.83-2.12,1.69-5.5-1.13-1,.28-2.69,2-4.8-3.39-4.51-6.5-2.26-1.55-1.56-3.67,1.27-3.67,3-2.54c0,0,8.19,4.52,10.44,3.39s5.37,1.83,6.36.14,2-3.25,3.24-3.67-4.37-1-4.51-3,.14-2.82-2.12-3.95-3.11,1.75-5.22-.75-5.09-5.46-7.77-4.9,4.66,4.9,4.66,4.9,4.38-1.23,6.21,2.79,6.78,7.56,3.67,7.28-6.21-6.35-7.2-5.37-.14,3.61-3.39.89-3.53-3.09-5.08-5.59-2.54-5.46-5.79-7.15-6.21-3.47-1.69-4.7A27.66,27.66,0,0,1,354.33,323.62Z"/><path class="cls-2" d="M413.79,384.54s11.6,25.18,11.34,49.42-7.3,44.3-9.87,49.91S395.53,516,395.53,516s-4.52.61,8.07-23.05c5.34-10,3.49-24.89,3.49-24.89s-1-6.35,3.46-9.57-1.43-3.74-5-.76-.67-6.86-6.12-4.83.76,4.4-6.79,5.25-1.41,5.5-14.32-1.61-5.87-17.74-6.83-22.74-8.87-16.17,5.45-24.59c5-2.95,5.55-4.58,1.47-7.77s1.16-9.54,4.66-8.15,5.88-1.1,7.83-4.52l1.95-3.42s4.05-2.24,6.21,2.38,4,4.69,7.67,4,2.14-2.82,3.79-3S410.29,384.39,413.79,384.54Z"/></g></svg>