<svg id="圖層_1" data-name="圖層 1" xmlns="http://www.w3.org/2000/svg" viewBox="0 0 159.98 159.99"><defs><style>.cls-1{fill:#231815;}</style></defs><path class="cls-1" d="M19.35,41.59l-.21-.82A2.9,2.9,0,0,0,21,39.62c.54-.79.47-1.53-.12-1.93s-1.11-.12-1.74.28l-1,.61a2.05,2.05,0,0,1-2.38.15,2.06,2.06,0,0,1-.3-3,3,3,0,0,1,2-1.26l.21.74a2.32,2.32,0,0,0-1.5,1c-.46.67-.42,1.35.11,1.72s1.16,0,1.68-.31l1-.61a2,2,0,0,1,2.46-.14,2.2,2.2,0,0,1,.3,3.22A3.46,3.46,0,0,1,19.35,41.59Z"/><path class="cls-1" d="M20.68,35c-1.82-1.48-2.06-3.46-.89-4.89a2.73,2.73,0,0,1,2-1l.14.78a1.94,1.94,0,0,0-1.46.71c-.87,1.07-.58,2.49.83,3.64s2.86,1.2,3.73.13a2.2,2.2,0,0,0,.44-1.82l.77,0a2.83,2.83,0,0,1-.6,2.4C24.46,36.29,22.52,36.46,20.68,35Z"/><path class="cls-1" d="M22.51,27.13l1.59-1.64c1-1.06,2.15-1.46,3.24-.4s.81,2.27-.23,3.33l-.94,1,2.21,2.15-.65.67Zm4,.86c.79-.81.9-1.58.22-2.24s-1.37-.45-2.16.36l-.85.88,1.94,1.88Zm.32.39.17-.86,4.28,1.06-.73.76Z"/><path class="cls-1" d="M29.37,25.31c-1.51-1.78-1.45-3.69-.06-4.88s3.29-.93,4.8.84,1.49,3.73.1,4.91S30.89,27.09,29.37,25.31Zm4-3.42c-1.17-1.38-2.55-1.68-3.54-.84s-.92,2.26.26,3.64,2.59,1.72,3.58.87S34.56,23.27,33.38,21.89Z"/><path class="cls-1" d="M33.41,17.31l.76-.54,3.77,5.3,2.59-1.84.46.64-3.35,2.38Z"/><path class="cls-1" d="M38.2,14l.8-.48,3.37,5.57,2.72-1.65.41.67L42,20.25Z"/><path class="cls-1" d="M49.22,9.07l-2,.87-.31-.72,4.9-2.1.31.72-2,.87,2.55,6-.85.36Z"/><path class="cls-1" d="M53.93,10.16c-.73-2.22,0-4,1.79-4.54s3.41.39,4.13,2.6,0,4-1.78,4.59S54.65,12.38,53.93,10.16Zm5-1.64C58.37,6.79,57.21,6,56,6.4s-1.71,1.73-1.14,3.46,1.74,2.58,3,2.17S59.5,10.25,58.94,8.52Z"/><path class="cls-1" d="M69.38,3.42l-2.18.29-.11-.78,5.3-.7.1.78L70.3,3.3l.85,6.45-.92.12Z"/><path class="cls-1" d="M74.19,2.08l.93,0,.12,3.05L78.62,5l-.12-3,.93,0,.29,7.28-.93,0-.13-3.42-3.39.14.14,3.42-.93,0Z"/><path class="cls-1" d="M81.91,1.91l4.19.2,0,.79L82.8,2.74,82.69,5l2.75.13,0,.79L82.65,5.8l-.13,2.65,3.38.16,0,.79-4.3-.21Z"/><path class="cls-1" d="M95.27,3.38l.9.2-1.4,6.35,3.11.69-.17.77-4-.89Z"/><path class="cls-1" d="M100.92,4.72l4,1.23-.23.75-3.13-1-.66,2.19,2.64.8-.23.75-2.64-.8-.77,2.53,3.23,1-.23.75L98.8,11.69Z"/><path class="cls-1" d="M106.91,6.64l3.91,1.54-.28.73-3.05-1.2-.9,2.29,2.58,1-.28.73-2.59-1-1.19,3-.87-.34Z"/><path class="cls-1" d="M113.4,10.27l-2-1,.35-.71,4.79,2.34-.34.71-2-1-2.85,5.85-.84-.41Z"/><path class="cls-1" d="M120.05,20.4l.82-.19a2.83,2.83,0,0,0,1.1,1.91c.77.56,1.51.51,1.93-.06s.14-1.11-.24-1.75l-.57-1a2.07,2.07,0,0,1-.1-2.39,2.09,2.09,0,0,1,3-.22,3,3,0,0,1,1.2,2l-.74.2a2.38,2.38,0,0,0-.94-1.53c-.66-.48-1.34-.46-1.73.07s0,1.15.27,1.68l.58,1a2,2,0,0,1,.07,2.45,2.19,2.19,0,0,1-3.22.22A3.47,3.47,0,0,1,120.05,20.4Z"/><path class="cls-1" d="M126.61,21.89c1.53-1.78,3.52-2,4.92-.75a2.72,2.72,0,0,1,.93,2l-.78.12a2,2,0,0,0-.67-1.48c-1-.9-2.48-.65-3.66.73s-1.28,2.83-.24,3.73a2.2,2.2,0,0,0,1.82.48v.77a2.81,2.81,0,0,1-2.38-.66C125.18,25.64,125.06,23.69,126.61,21.89Z"/><path class="cls-1" d="M134.39,23.92l1.6,1.64c1,1.06,1.4,2.2.31,3.26s-2.29.74-3.32-.32l-.95-1-2.21,2.15-.64-.67ZM133,28.19l.85.18-1.18,4.26-.73-.76Zm.39-.31c.79.81,1.56.93,2.23.27s.5-1.35-.29-2.16l-.86-.88L132.57,27Z"/><path class="cls-1" d="M136,30.83c1.81-1.46,3.72-1.35,4.87.07s.85,3.31-1,4.78-3.77,1.39-4.92,0S134.21,32.3,136,30.83Zm3.31,4.1c1.41-1.14,1.74-2.51.93-3.52s-2.23-1-3.64.17-1.79,2.54-1,3.55S137.93,36.07,139.34,34.93Z"/><path class="cls-1" d="M143.92,35.09l.52.77L139,39.49l1.78,2.64-.66.43-2.29-3.4Z"/><path class="cls-1" d="M147.08,40l.46.81L141.89,44l1.57,2.76-.68.39-2-3.57Z"/><path class="cls-1" d="M151.74,51.11l-.82-2,.73-.29,2,5-.73.29L152.08,52,146,54.37l-.34-.86Z"/><path class="cls-1" d="M150.53,55.8c2.24-.66,4,.17,4.48,1.92s-.47,3.39-2.71,4.06-4-.15-4.53-1.91S148.29,56.47,150.53,55.8Zm1.5,5.06c1.74-.52,2.57-1.66,2.2-2.91s-1.69-1.75-3.43-1.23-2.62,1.67-2.25,2.92S150.29,61.37,152,60.86Z"/><path class="cls-1" d="M156.54,69.06l-.29-2.18.77-.11.72,5.29-.78.11L156.67,70l-6.45.88-.12-.92Z"/><path class="cls-1" d="M157.9,73.87l0,.92-3.05.14.15,3.38,3.05-.13,0,.92-7.28.32,0-.92,3.42-.15L154.08,75l-3.42.15,0-.92Z"/><path class="cls-1" d="M158.1,81.58l-.18,4.2-.79,0,.15-3.27-2.28-.1-.12,2.76-.79,0,.12-2.76-2.64-.12-.15,3.38-.79,0,.19-4.31Z"/><path class="cls-1" d="M156.68,95l-.19.91-6.36-1.38-.67,3.11-.77-.16.87-4Z"/><path class="cls-1" d="M155.37,100.62l-1.21,4-.75-.22.94-3.14-2.19-.65-.79,2.64-.75-.22.79-2.65-2.54-.76-1,3.24-.75-.22,1.24-4.13Z"/><path class="cls-1" d="M153.47,106.61,152,110.53l-.73-.28,1.18-3.06-2.29-.88-1,2.59-.73-.29,1-2.59-3-1.18.34-.86Z"/><path class="cls-1" d="M149.88,113.13l1-2,.7.34-2.31,4.81-.71-.34,1-2-5.87-2.82.41-.84Z"/><path class="cls-1" d="M139.77,119.79l.19.82a2.84,2.84,0,0,0-1.9,1.11c-.56.77-.51,1.51.07,1.93s1.1.14,1.75-.24l1-.58a2,2,0,0,1,2.38-.11,2.07,2.07,0,0,1,.23,3,3,3,0,0,1-2,1.21l-.2-.74a2.34,2.34,0,0,0,1.52-1c.48-.66.46-1.34-.07-1.72s-1.15,0-1.68.27l-1,.58a2,2,0,0,1-2.45.08,2.2,2.2,0,0,1-.24-3.22A3.52,3.52,0,0,1,139.77,119.79Z"/><path class="cls-1" d="M138.31,126.36c1.78,1.52,2,3.51.77,4.91a2.72,2.72,0,0,1-2,.94l-.12-.78a2,2,0,0,0,1.48-.67c.9-1,.63-2.48-.75-3.66s-2.83-1.27-3.73-.22a2.18,2.18,0,0,0-.47,1.81h-.78a2.81,2.81,0,0,1,.66-2.38C134.56,124.94,136.51,124.82,138.31,126.36Z"/><path class="cls-1" d="M132,132.82l-.18.85-4.26-1.16.75-.74Zm4.27,1.35-1.63,1.6c-1.06,1-2.19,1.41-3.26.32s-.75-2.28.31-3.32l1-1-2.16-2.2.66-.65Zm-4-1c-.81.8-.93,1.56-.27,2.24s1.36.49,2.17-.31l.87-.86-1.89-1.92Z"/><path class="cls-1" d="M129.41,135.81c1.48,1.81,1.38,3.72,0,4.88s-3.32.86-4.79-.94-1.41-3.76,0-4.92S127.93,134,129.41,135.81Zm-4.09,3.33c1.15,1.41,2.52,1.74,3.53.91s1-2.23-.18-3.64-2.55-1.77-3.56-.95S124.18,137.73,125.32,139.14Z"/><path class="cls-1" d="M125.16,143.74l-.77.52-3.65-5.39-2.63,1.79-.44-.65,3.4-2.31Z"/><path class="cls-1" d="M120.31,146.91l-.81.47-3.23-5.64-2.76,1.58-.39-.68,3.56-2Z"/><path class="cls-1" d="M109.17,151.62l2-.83.29.73-5,2-.29-.73,2-.82-2.42-6,.86-.35Z"/><path class="cls-1" d="M104.48,150.42c.68,2.24-.15,4-1.9,4.49s-3.39-.46-4.07-2.69.14-4,1.89-4.54S103.81,148.19,104.48,150.42Zm-5,1.52c.53,1.74,1.67,2.57,2.91,2.19s1.75-1.69,1.22-3.43-1.68-2.62-2.92-2.24S98.91,150.2,99.43,151.94Z"/><path class="cls-1" d="M91.24,156.49l2.19-.3.11.78-5.29.74-.11-.78,2.19-.31-.91-6.44.92-.13Z"/><path class="cls-1" d="M86.46,157.86l-.93,0-.15-3L82,155l.14,3-.92.05-.35-7.28.92-.05.17,3.43,3.38-.17-.16-3.42.93,0Z"/><path class="cls-1" d="M78.74,158.1l-4.19-.17,0-.79,3.27.13.09-2.28-2.76-.11,0-.78,2.76.11.1-2.65-3.38-.13,0-.79,4.3.17Z"/><path class="cls-1" d="M65.36,156.73l-.91-.19,1.35-6.37-3.11-.66.16-.76,4,.85Z"/><path class="cls-1" d="M59.68,155.44l-4-1.19.23-.76,3.14.93.64-2.19L57,151.45l.23-.76,2.65.79.75-2.54-3.25-1,.22-.76,4.14,1.22Z"/><path class="cls-1" d="M53.67,153.56l-3.93-1.51.29-.74,3.06,1.18.88-2.3-2.6-1,.28-.74,2.6,1,1.17-3.05.87.33Z"/><path class="cls-1" d="M47.15,150l2,.95-.34.71L44,149.35l.34-.71,2,1,2.8-5.87.84.4Z"/><path class="cls-1" d="M42.29,141.09l-.82.22a2.82,2.82,0,0,0-1.17-1.87c-.79-.53-1.53-.45-1.92.14s-.11,1.11.3,1.74l.61,1a2,2,0,0,1,.19,2.38,2.08,2.08,0,0,1-3,.33,3,3,0,0,1-1.29-1.94l.74-.22a2.34,2.34,0,0,0,1,1.48c.68.46,1.36.41,1.72-.13s0-1.15-.34-1.67l-.61-1a2,2,0,0,1-.17-2.45,2.21,2.21,0,0,1,3.22-.35A3.5,3.5,0,0,1,42.29,141.09Z"/><path class="cls-1" d="M35.69,139.86c-1.47,1.84-3.44,2.09-4.89.94a2.72,2.72,0,0,1-1-2l.78-.16a2,2,0,0,0,.73,1.46c1.07.86,2.49.55,3.63-.87s1.17-2.87.09-3.74a2.21,2.21,0,0,0-1.83-.41l0-.77a2.8,2.8,0,0,1,2.41.57C37,136.06,37.17,138,35.69,139.86Z"/><path class="cls-1" d="M27.81,138.11l-1.65-1.57c-1.08-1-1.49-2.14-.44-3.24s2.26-.83,3.33.19l1,.93,2.12-2.23.67.64Zm.82-4c-.82-.78-1.59-.88-2.24-.19s-.44,1.37.38,2.15l.89.84,1.86-2Zm.38-.33-.86-.15,1-4.3.76.72Z"/><path class="cls-1" d="M25.94,131.29c-1.76,1.54-3.67,1.5-4.88.12s-1-3.28.77-4.81,3.71-1.54,4.92-.16S27.69,129.76,25.94,131.29Zm-3.47-4c-1.37,1.2-1.65,2.58-.8,3.56s2.27.89,3.63-.31S27,128,26.14,127,23.83,126.13,22.47,127.32Z"/><path class="cls-1" d="M17.87,127.32l-.55-.75,5.26-3.83-1.88-2.57.64-.46L23.76,123Z"/><path class="cls-1" d="M14.54,122.59l-.49-.79,5.52-3.43-1.68-2.7.67-.41,2.17,3.49Z"/><path class="cls-1" d="M9.45,111.62l.89,2-.72.31-2.15-4.88.72-.32.89,2L15,108.14l.37.85Z"/><path class="cls-1" d="M10.48,106.89c-2.21.75-4,0-4.56-1.75s.35-3.4,2.55-4.15,4,0,4.61,1.72S12.69,106.14,10.48,106.89Zm-1.7-5c-1.72.59-2.5,1.76-2.08,3s1.75,1.68,3.47,1.1,2.55-1.77,2.13-3S10.5,101.31,8.78,101.89Z"/><path class="cls-1" d="M3.57,91.53l.31,2.18-.78.11-.75-5.28.78-.11.31,2.18,6.43-.92.13.92Z"/><path class="cls-1" d="M2.17,86.76l0-.93,3.05-.16L5,82.28l-3.05.16-.05-.92,7.28-.38.05.92-3.42.18L6,85.63l3.42-.18,0,.93Z"/><path class="cls-1" d="M1.91,79l.16-4.2.78,0-.12,3.27L5,78.19l.1-2.76.79,0-.11,2.76,2.65.1.13-3.38.78,0-.16,4.31Z"/><path class="cls-1" d="M3.23,65.63l.19-.9,6.36,1.33L10.43,63l.77.16-.84,4Z"/><path class="cls-1" d="M4.5,60l1.17-4,.76.22-.92,3.14,2.19.64.78-2.65.75.22-.77,2.65,2.54.75L12,57.64l.75.22L11.5,62Z"/><path class="cls-1" d="M6.35,54,7.83,50l.74.27L7.41,53.38l2.3.87,1-2.6.74.28-1,2.6,3.05,1.16-.32.86Z"/><path class="cls-1" d="M9.89,47.43l-1,2-.71-.33,2.28-4.83.71.34-.94,2,5.88,2.78-.39.84Z"/></svg>