<svg id="圖層_1" data-name="圖層 1" xmlns="http://www.w3.org/2000/svg" viewBox="0 0 226.77 226.77"><defs><style>.cls-1{fill:#231815;}</style></defs><path class="cls-1" d="M55,72.87l-.21-.82a2.8,2.8,0,0,0,1.88-1.15c.54-.79.47-1.52-.12-1.92s-1.1-.12-1.74.28l-1,.6A2,2,0,0,1,51.14,67a3,3,0,0,1,2-1.26l.21.74a2.36,2.36,0,0,0-1.5,1c-.46.68-.42,1.36.12,1.73s1.15,0,1.67-.32l1-.6A2,2,0,0,1,57,68.16a2.21,2.21,0,0,1,.31,3.22A3.52,3.52,0,0,1,55,72.87Z"/><path class="cls-1" d="M56.32,66.25c-1.82-1.49-2-3.47-.88-4.9a2.71,2.71,0,0,1,2-1l.15.77a2,2,0,0,0-1.47.71c-.87,1.07-.58,2.49.83,3.64s2.86,1.21,3.74.14a2.17,2.17,0,0,0,.43-1.83l.77,0a2.79,2.79,0,0,1-.6,2.4C60.11,67.58,58.16,67.75,56.32,66.25Z"/><path class="cls-1" d="M58.15,58.41l1.59-1.63c1-1.07,2.16-1.46,3.25-.4s.8,2.26-.23,3.33l-.95,1L64,62.83l-.64.66Zm4,.87c.79-.81.9-1.58.22-2.24s-1.36-.46-2.15.36l-.86.87,1.94,1.89Zm.33.38.16-.85,4.28,1.06-.73.75Z"/><path class="cls-1" d="M65,56.59c-1.51-1.77-1.45-3.68-.06-4.87s3.3-.94,4.81.83,1.49,3.73.09,4.92S66.53,58.37,65,56.59Zm4-3.42c-1.18-1.38-2.56-1.67-3.55-.83s-.91,2.25.26,3.63,2.59,1.72,3.58.88S70.21,54.56,69,53.17Z"/><path class="cls-1" d="M69.06,48.59l.75-.53,3.77,5.3,2.59-1.85.46.64-3.35,2.38Z"/><path class="cls-1" d="M73.85,45.29l.79-.48L78,50.38l2.72-1.65.41.67-3.52,2.13Z"/><path class="cls-1" d="M84.87,40.36l-2,.86-.31-.72,4.91-2.09.31.72-2,.86,2.55,6-.85.37Z"/><path class="cls-1" d="M89.57,41.44c-.73-2.22.05-4,1.8-4.53s3.4.38,4.12,2.6,0,4-1.78,4.58S90.29,43.66,89.57,41.44Zm5-1.64c-.56-1.72-1.72-2.52-3-2.12s-1.7,1.74-1.14,3.46,1.74,2.58,3,2.18S95.15,41.53,94.58,39.8Z"/><path class="cls-1" d="M105,34.7l-2.19.29-.1-.78,5.29-.7.1.78-2.18.29.84,6.45-.92.12Z"/><path class="cls-1" d="M109.83,33.37l.93,0,.12,3.05,3.39-.13-.12-3,.92,0,.29,7.28-.92,0-.14-3.42-3.39.13.14,3.42-.93,0Z"/><path class="cls-1" d="M117.55,33.19l4.2.21,0,.78L118.44,34l-.11,2.29,2.76.13,0,.78-2.76-.13-.13,2.65,3.38.16,0,.78-4.31-.2Z"/><path class="cls-1" d="M130.91,34.66l.91.2-1.41,6.36,3.11.68-.17.77-4-.88Z"/><path class="cls-1" d="M136.57,36l4,1.22-.23.75L137.22,37l-.66,2.18,2.64.81-.23.75L136.33,40l-.77,2.54,3.23,1-.22.75L134.44,43Z"/><path class="cls-1" d="M142.55,37.93l3.92,1.53-.29.74L143.13,39l-.9,2.29,2.59,1-.29.73-2.59-1-1.19,3-.86-.34Z"/><path class="cls-1" d="M149.05,41.55l-2-1,.35-.7,4.8,2.34-.35.7-2-1L147,47.8l-.83-.41Z"/><path class="cls-1" d="M155.69,51.69l.82-.19a2.91,2.91,0,0,0,1.1,1.91c.77.56,1.51.51,1.93-.07s.15-1.1-.23-1.75l-.58-1a2,2,0,0,1-.09-2.38,2.07,2.07,0,0,1,3-.22,3,3,0,0,1,1.21,2l-.75.19a2.32,2.32,0,0,0-.94-1.52c-.66-.48-1.34-.46-1.72.06s-.06,1.16.27,1.69l.57,1a2,2,0,0,1,.07,2.46,2.2,2.2,0,0,1-3.22.22A3.5,3.5,0,0,1,155.69,51.69Z"/><path class="cls-1" d="M162.25,53.18c1.53-1.78,3.52-2,4.92-.76a2.74,2.74,0,0,1,.93,2l-.78.13a2,2,0,0,0-.67-1.49c-1-.9-2.47-.64-3.66.73s-1.28,2.83-.24,3.73a2.21,2.21,0,0,0,1.82.49v.77a2.84,2.84,0,0,1-2.38-.66C160.82,56.92,160.71,55,162.25,53.18Z"/><path class="cls-1" d="M170,55.21l1.59,1.63c1,1.07,1.4,2.2.31,3.26s-2.29.74-3.32-.32l-1-1L165.47,61l-.65-.66Zm-1.37,4.26.85.19-1.18,4.25-.73-.75Zm.39-.31c.8.81,1.56.94,2.24.28s.49-1.36-.3-2.17l-.85-.87-1.94,1.89Z"/><path class="cls-1" d="M171.67,62.12c1.81-1.47,3.72-1.36,4.87.06s.85,3.32-1,4.78-3.76,1.39-4.91,0S169.85,63.58,171.67,62.12Zm3.31,4.1c1.41-1.14,1.75-2.51.93-3.52s-2.23-1-3.64.16-1.79,2.54-1,3.56S173.57,67.36,175,66.22Z"/><path class="cls-1" d="M179.56,66.37l.52.77-5.4,3.63,1.78,2.64-.65.44-2.3-3.41Z"/><path class="cls-1" d="M182.73,71.24l.46.8-5.66,3.22L179.1,78l-.68.39-2-3.58Z"/><path class="cls-1" d="M187.38,82.4l-.81-2.05.73-.29,2,5-.73.29-.81-2-6.05,2.4-.34-.87Z"/><path class="cls-1" d="M186.17,87.09c2.24-.67,4,.16,4.49,1.92s-.48,3.39-2.72,4-4-.15-4.53-1.9S183.93,87.75,186.17,87.09Zm1.5,5c1.74-.51,2.57-1.65,2.2-2.9s-1.68-1.75-3.43-1.24-2.62,1.68-2.25,2.92S185.93,92.66,187.67,92.14Z"/><path class="cls-1" d="M192.19,100.35l-.3-2.18.78-.11.71,5.29-.77.1-.3-2.18-6.44.87-.13-.91Z"/><path class="cls-1" d="M193.54,105.15l0,.93-3,.13.14,3.39,3-.14,0,.93-7.28.32,0-.93,3.43-.15-.15-3.38-3.43.15,0-.93Z"/><path class="cls-1" d="M193.75,112.86l-.19,4.2-.78,0,.14-3.27-2.28-.1-.12,2.76-.79,0,.13-2.76-2.65-.11-.15,3.38-.78,0,.19-4.31Z"/><path class="cls-1" d="M192.32,126.24l-.19.9-6.36-1.37-.67,3.11-.77-.17.87-4Z"/><path class="cls-1" d="M191,131.9l-1.21,4-.75-.23.94-3.13-2.19-.66-.79,2.64-.75-.22.79-2.65-2.54-.76-1,3.25-.75-.23,1.24-4.13Z"/><path class="cls-1" d="M189.11,137.9l-1.52,3.92-.73-.29,1.18-3.05-2.29-.89-1,2.59-.74-.28,1-2.59-3-1.18.33-.87Z"/><path class="cls-1" d="M185.52,144.41l1-2,.71.34-2.32,4.81-.71-.34,1-2-5.86-2.83.4-.83Z"/><path class="cls-1" d="M175.41,151.07l.2.83a2.83,2.83,0,0,0-1.91,1.1c-.56.78-.5,1.52.07,1.93s1.11.15,1.75-.24l1-.58a2.06,2.06,0,0,1,2.39-.1,2.08,2.08,0,0,1,.23,3,3.05,3.05,0,0,1-2,1.22l-.2-.75a2.34,2.34,0,0,0,1.52-.94c.48-.67.46-1.35-.07-1.73s-1.15-.05-1.68.28l-1,.58a2,2,0,0,1-2.46.08,2.2,2.2,0,0,1-.23-3.23A3.48,3.48,0,0,1,175.41,151.07Z"/><path class="cls-1" d="M174,157.64c1.79,1.53,2,3.51.77,4.92a2.71,2.71,0,0,1-2,.94l-.13-.78a2,2,0,0,0,1.48-.68c.9-1,.64-2.48-.74-3.66s-2.84-1.27-3.73-.22a2.17,2.17,0,0,0-.48,1.82h-.77a2.81,2.81,0,0,1,.65-2.39C170.2,156.22,172.15,156.1,174,157.64Z"/><path class="cls-1" d="M167.66,164.11l-.18.85-4.26-1.16.75-.74Zm4.27,1.35-1.63,1.59c-1.06,1-2.19,1.41-3.25.33s-.76-2.29.3-3.33l1-1-2.16-2.19.66-.65Zm-4-1c-.81.79-.94,1.56-.27,2.23s1.35.49,2.16-.31l.87-.85-1.89-1.93Z"/><path class="cls-1" d="M165.05,167.09c1.48,1.81,1.38,3.72,0,4.88s-3.31.87-4.79-.94-1.4-3.76,0-4.91S163.58,165.29,165.05,167.09ZM161,170.43c1.14,1.4,2.52,1.73,3.52.91s1-2.23-.18-3.64-2.55-1.78-3.56-.95S159.82,169,161,170.43Z"/><path class="cls-1" d="M160.8,175l-.77.52-3.65-5.39-2.63,1.78-.44-.65,3.4-2.3Z"/><path class="cls-1" d="M156,178.2l-.8.46L151.91,173l-2.76,1.58-.39-.68,3.56-2Z"/><path class="cls-1" d="M144.81,182.9l2.05-.82.3.73-5,2-.29-.73,2-.82-2.42-6,.86-.35Z"/><path class="cls-1" d="M140.12,181.71c.68,2.23-.14,4-1.9,4.49s-3.39-.46-4.06-2.7.13-4,1.88-4.54S139.45,179.47,140.12,181.71Zm-5.05,1.52c.53,1.74,1.67,2.56,2.92,2.19s1.74-1.7,1.22-3.44-1.69-2.61-2.93-2.24S134.55,181.49,135.07,183.23Z"/><path class="cls-1" d="M126.89,187.78l2.18-.31.11.78-5.29.74-.11-.78,2.19-.3-.9-6.45.91-.13Z"/><path class="cls-1" d="M122.1,189.15l-.93,0-.14-3-3.39.16.15,3.05-.93,0-.35-7.28.93,0,.16,3.42,3.39-.16-.17-3.43.93,0Z"/><path class="cls-1" d="M114.38,189.38l-4.19-.17,0-.78,3.27.13.09-2.28-2.76-.11,0-.79,2.76.11.11-2.64-3.38-.14,0-.78,4.3.17Z"/><path class="cls-1" d="M101,188l-.91-.19,1.35-6.36-3.11-.66.16-.77,4,.85Z"/><path class="cls-1" d="M95.33,186.72l-4-1.19.22-.75,3.14.93.65-2.2-2.65-.78.22-.75,2.65.78.75-2.54-3.25-1,.22-.75,4.14,1.22Z"/><path class="cls-1" d="M89.31,184.84l-3.92-1.51.28-.73,3.06,1.17.88-2.29-2.59-1,.28-.73,2.59,1,1.17-3,.87.33Z"/><path class="cls-1" d="M82.79,181.27l2,.95-.34.71-4.82-2.3.34-.71,2,1L84.76,175l.83.4Z"/><path class="cls-1" d="M77.93,172.37l-.81.22A2.86,2.86,0,0,0,76,170.73c-.8-.53-1.54-.45-1.93.14s-.1,1.1.3,1.74l.61,1a1.95,1.95,0,0,1-2.79,2.71,3,3,0,0,1-1.28-1.94l.74-.22a2.31,2.31,0,0,0,1,1.49c.68.45,1.36.41,1.72-.13s0-1.16-.33-1.68l-.62-1a2,2,0,0,1-.16-2.45,2.2,2.2,0,0,1,3.21-.34A3.48,3.48,0,0,1,77.93,172.37Z"/><path class="cls-1" d="M71.33,171.14c-1.46,1.84-3.44,2.1-4.89,1a2.74,2.74,0,0,1-1-2l.77-.15a2,2,0,0,0,.73,1.46c1.08.86,2.5.55,3.63-.87s1.17-2.88.09-3.74a2.13,2.13,0,0,0-1.83-.41l0-.78a2.79,2.79,0,0,1,2.4.58C72.62,167.35,72.81,169.29,71.33,171.14Z"/><path class="cls-1" d="M63.45,169.4l-1.65-1.57c-1.08-1-1.49-2.14-.44-3.25s2.26-.83,3.33.2l1,.93,2.12-2.24.67.64Zm.82-4c-.82-.78-1.59-.87-2.24-.19s-.44,1.37.38,2.15l.89.85,1.86-2Zm.38-.32-.86-.16,1-4.29.76.72Z"/><path class="cls-1" d="M61.58,162.58c-1.76,1.53-3.67,1.5-4.88.12s-1-3.28.78-4.82,3.71-1.53,4.91-.15S63.34,161,61.58,162.58Zm-3.47-4c-1.37,1.19-1.65,2.57-.79,3.55s2.26.89,3.63-.3,1.68-2.62.83-3.6S59.48,157.41,58.11,158.61Z"/><path class="cls-1" d="M53.51,158.61l-.54-.75L58.22,154l-1.87-2.57L57,151l2.42,3.32Z"/><path class="cls-1" d="M50.18,153.88l-.49-.79,5.52-3.43L53.53,147l.67-.42L56.37,150Z"/><path class="cls-1" d="M45.09,142.9l.89,2-.71.32-2.16-4.89.72-.31.89,2,6-2.63.37.85Z"/><path class="cls-1" d="M46.12,138.17c-2.21.75-4,0-4.55-1.74s.34-3.41,2.55-4.16,4,0,4.6,1.73S48.33,137.42,46.12,138.17Zm-1.7-5c-1.71.58-2.5,1.75-2.08,3s1.75,1.68,3.47,1.09,2.56-1.77,2.14-3S46.14,132.59,44.42,133.18Z"/><path class="cls-1" d="M39.21,122.81l.31,2.18-.77.11L38,119.82l.78-.11.31,2.18,6.43-.92.14.92Z"/><path class="cls-1" d="M37.81,118l-.05-.93,3.05-.15-.18-3.39-3.05.16,0-.93,7.28-.38,0,.93-3.43.18.18,3.38,3.42-.18.05.93Z"/><path class="cls-1" d="M37.55,110.29l.16-4.2.78,0-.12,3.27,2.28.09.11-2.76.78,0-.1,2.76,2.64.09.13-3.38.78,0-.16,4.31Z"/><path class="cls-1" d="M38.87,96.92l.19-.91,6.37,1.33.65-3.11.76.16-.84,4Z"/><path class="cls-1" d="M40.14,91.24l1.18-4,.75.22-.92,3.15,2.2.64.77-2.65.75.22-.77,2.65,2.54.74,1-3.25.76.22-1.21,4.14Z"/><path class="cls-1" d="M42,85.25l1.49-3.93.73.28-1.16,3.06,2.3.88,1-2.6.73.27-1,2.6,3,1.16-.33.87Z"/><path class="cls-1" d="M45.53,78.71l-.94,2-.71-.34,2.28-4.82.71.33-.95,2,5.88,2.78-.39.84Z"/></svg>